<svg id="kity_svg_6" xmlns="http://www.w3.org/2000/svg" xmlns:xlink="http://www.w3.org/1999/xlink" version="1.1" width="2343" height="833" style="background: rgb(251, 251, 251); visibility: visible;" viewBox="0 0 2343 833"><defs id="kity_defs_7"><linearGradient id="kity_linearGradient_17" x1="0" y1="0" x2="0" y2="1"><stop id="kity_stop_18" offset="0" stop-color="rgb(255, 255, 255)"></stop><stop id="kity_stop_19" offset="1" stop-color="rgb(204, 204, 204)"></stop></linearGradient><marker id="kity_marker_2" orient="auto" refX="6" refY="0" viewBox="-7 -7 14 14" markerWidth="7" markerHeight="7" markerUnits="userSpaceOnUse"><path id="kity_path_3" fill="rgb(115, 161, 191)" stroke="none" d="M6,0A6,6,0,1,1,-6,0A6,6,0,1,1,6,0"></path></marker></defs><g id="kity_g_8"><g id="minder1" text-rendering="optimize-speed"><g id="minder_connect_group1"><path id="kity_path_31" fill="none" stroke="rgb(115, 161, 191)" stroke-width="1" d="M983,489.5A93.5,339,0,0,1,1076.5,150.5"></path><path id="kity_path_33" fill="none" stroke="rgb(115, 161, 191)" stroke-width="1" d="M1505.5,150.5C1520.5,150.5,1520.5,51.5,1535.5,51.5L1968.5,51.5"></path><path id="kity_path_35" fill="none" stroke="rgb(115, 161, 191)" stroke-width="1" d="M1505.5,150.5C1520.5,150.5,1520.5,109.5,1535.5,109.5L1985.5,109.5"></path><path id="kity_path_37" fill="none" stroke="rgb(115, 161, 191)" stroke-width="1" d="M1505.5,150.5C1520.5,150.5,1520.5,167.5,1535.5,167.5L2028.5,167.5"></path><path id="kity_path_39" fill="none" stroke="rgb(115, 161, 191)" stroke-width="1" d="M1505.5,150.5C1520.5,150.5,1520.5,225.5,1535.5,225.5L1920.5,225.5"></path><path id="kity_path_41" fill="none" stroke="rgb(115, 161, 191)" stroke-width="1" d="M1505.5,150.5C1520.5,150.5,1520.5,283.5,1535.5,283.5L2137.5,283.5"></path><path id="kity_path_43" fill="none" stroke="rgb(115, 161, 191)" stroke-width="1" d="M983,489.5A128.5,249,0,0,0,1111.5,738.5"></path><path id="kity_path_51" fill="none" stroke="rgb(115, 161, 191)" stroke-width="1" d="M983,489.5A122.5,49,0,0,0,1105.5,538.5"></path><path id="kity_path_53" fill="none" stroke="rgb(115, 161, 191)" stroke-width="1" d="M1262.5,538.5C1269.5,538.5,1269.5,440.5,1276.5,440.5L2323.5,440.5"></path><path id="kity_path_55" fill="none" stroke="rgb(115, 161, 191)" stroke-width="1" d="M1262.5,538.5C1277.5,538.5,1277.5,526.5,1292.5,526.5L1646.5,526.5"></path><path id="kity_path_57" fill="none" stroke="rgb(115, 161, 191)" stroke-width="1" d="M1262.5,538.5C1277.5,538.5,1277.5,584.5,1292.5,584.5L1513.5,584.5"></path><path id="kity_path_59" fill="none" stroke="rgb(115, 161, 191)" stroke-width="1" d="M1262.5,538.5C1277.5,538.5,1277.5,642.5,1292.5,642.5L1424.5,642.5"></path><path id="kity_path_61" fill="none" stroke="rgb(115, 161, 191)" stroke-width="1" d="M983,489.5A246.5,390,0,0,0,736.5,99.5"></path><path id="kity_path_65" fill="none" stroke="rgb(115, 161, 191)" stroke-width="1" d="M983,489.5A151.5,277,0,0,0,831.5,212.5"></path><path id="kity_path_73" fill="none" stroke="rgb(115, 161, 191)" stroke-width="1" d="M983,489.5A171.5,47,0,0,0,811.5,442.5"></path><path id="kity_path_75" fill="none" stroke="rgb(115, 161, 191)" stroke-width="1" d="M617.5,442.5C602.5,442.5,602.5,343.5,587.5,343.5L20.5,343.5"></path><path id="kity_path_77" fill="none" stroke="rgb(115, 161, 191)" stroke-width="1" d="M617.5,442.5C602.5,442.5,602.5,401.5,587.5,401.5L101.5,401.5"></path><path id="kity_path_79" fill="none" stroke="rgb(115, 161, 191)" stroke-width="1" d="M617.5,442.5C602.5,442.5,602.5,459.5,587.5,459.5L244.5,459.5"></path><path id="kity_path_81" fill="none" stroke="rgb(115, 161, 191)" stroke-width="1" d="M617.5,442.5C602.5,442.5,602.5,517.5,587.5,517.5L49.5,517.5"></path><path id="kity_path_83" fill="none" stroke="rgb(115, 161, 191)" stroke-width="1" d="M617.5,442.5C602.5,442.5,602.5,575.5,587.5,575.5L43.5,575.5"></path><path id="kity_path_85" fill="none" stroke="rgb(115, 161, 191)" stroke-width="1" d="M983,489.5A143.5,210,0,0,1,839.5,699.5"></path><path id="kity_path_87" fill="none" stroke="rgb(115, 161, 191)" stroke-width="1" d="M682.5,699.5C667.5,699.5,667.5,687.5,652.5,687.5L384.5,687.5"></path><path id="kity_path_89" fill="none" stroke="rgb(115, 161, 191)" stroke-width="1" d="M682.5,699.5C667.5,699.5,667.5,745.5,652.5,745.5L544.5,745.5"></path><path id="kity_path_305" fill="none" stroke="rgb(115, 161, 191)" stroke-width="1" d="M601.5,212.5C586.5,212.5,586.5,171.5,571.5,171.5L256.5,171.5"></path><path id="kity_path_306" fill="none" stroke="rgb(115, 161, 191)" stroke-width="1" d="M601.5,212.5C586.5,212.5,586.5,229.5,571.5,229.5L332.5,229.5"></path><path id="kity_path_307" fill="none" stroke="rgb(115, 161, 191)" stroke-width="1" d="M601.5,212.5C586.5,212.5,586.5,287.5,571.5,287.5L368.5,287.5"></path><path id="kity_path_313" fill="none" stroke="rgb(115, 161, 191)" stroke-width="1" d="M577.5,99.5C562.5,99.5,562.5,116.5,547.5,116.5L407.5,116.5"></path><path id="kity_path_320" fill="none" stroke="rgb(115, 161, 191)" stroke-width="1" d="M1251.5,738.5C1266.5,738.5,1266.5,697.5,1281.5,697.5L1610.5,697.5"></path><path id="kity_path_321" fill="none" stroke="rgb(115, 161, 191)" stroke-width="1" d="M1251.5,738.5C1266.5,738.5,1266.5,755.5,1281.5,755.5L1574.5,755.5"></path><path id="kity_path_322" fill="none" stroke="rgb(115, 161, 191)" stroke-width="1" d="M1251.5,738.5C1266.5,738.5,1266.5,813.5,1281.5,813.5L1505.5,813.5"></path></g><g id="minder_node1"><path id="node_outline1" fill="rgb(115, 161, 191)" stroke="rgb(115, 161, 191)" d="M909.5,468.5h147a5,5,0,0,1,5,5v32a5,5,0,0,1,-5,5h-147a5,5,0,0,1,-5,-5v-32a5,5,0,0,1,5,-5z" stroke-width="3"></path><g id="node_text1" fill="white"><text id="kity_text_22" text-rendering="inherit" font-size="18" dy=".8em" y="477.7999999523163" x="928.5">爬虫基础知识</text></g></g><g id="kity_g_12" display="none"><path id="kity_path_13" fill="none" stroke="none" d="M928.5,489.5h0v0h0z"></path></g><g id="kity_g_14" display="none"><path id="kity_path_15" fill="rgba(0, 92, 153, 0.5)" stroke="none" d="M601.5,171.5h228v20h-228z"></path><path id="kity_path_16" fill="none" stroke="rgb(0, 76, 128)" d="M601.5,191.5L829.5,191.5" stroke-width="1"></path></g><g id="minder_node2"><g id="node_expander6" style="cursor: pointer;"><path id="kity_path_231" fill="white" stroke="gray" d="M1077.5,150.5A6,6,0,1,1,1065.5,150.5A6,6,0,1,1,1077.5,150.5"></path><path id="kity_path_232" fill="none" stroke="gray" d="M1067,150.5L1076,150.5"></path></g><path id="node_outline7" fill="rgb(238, 243, 246)" stroke="rgb(115, 161, 191)" d="M1081.5,134.5h421a3,3,0,0,1,3,3v26a3,3,0,0,1,-3,3h-421a3,3,0,0,1,-3,-3v-26a3,3,0,0,1,3,-3z" stroke-width="1"></path><g id="node_text7" fill="black"><text id="kity_text_101" text-rendering="inherit" font-size="18" dy=".8em" y="138.79999995231628" x="1123.5">技术选型scrapy vs requests+beautifulsoup</text></g><g id="node_priority1"><path id="kity_path_152" fill="#840023" stroke="none" d="M1099,154c0,3.866,3.134,7,7,7h6c3.866,0,7,-3.134,7,-7V148H1099V154z"></path><path id="kity_path_153" fill="#FF1200" stroke="none" d="M1119,151c0,3.866,-3.134,7,-7,7H1106c-3.866,0,-7,-3.134,-7,-7V148c0,-3.866,3.134,-7,7,-7h6c3.866,0,7,3.134,7,7V151z" opacity="0.8"></path><text id="kity_text_154" text-rendering="geometricPrecision" x="1108" y="150.5" text-anchor="middle" font-style="italic" font-size="12" fill="white" dy="5">1</text></g></g><g id="minder_node3"><g id="node_expander1" style="cursor: pointer;" display="none"><path id="kity_path_216" fill="white" stroke="gray" d="M1545.5,34.5A6,6,0,1,1,1533.5,34.5A6,6,0,1,1,1545.5,34.5"></path><path id="kity_path_217" fill="none" stroke="gray"></path></g><path id="node_outline2" fill="none" stroke="none" d="M1550.5,20.5h413a5,5,0,0,1,5,5v18a5,5,0,0,1,-5,5h-413a5,5,0,0,1,-5,-5v-18a5,5,0,0,1,5,-5z" stroke-width="3"></path><g id="node_text2" fill="black"><text id="kity_text_91" text-rendering="inherit" font-size="18" dy=".8em" y="22.799999952316284" x="1555.5">1、requests和beautifulsoup是库，scrapy是框架</text></g></g><g id="minder_node4"><g id="node_expander2" style="cursor: pointer;" display="none"><path id="kity_path_219" fill="white" stroke="gray" d="M1545.5,92.5A6,6,0,1,1,1533.5,92.5A6,6,0,1,1,1545.5,92.5"></path><path id="kity_path_220" fill="none" stroke="gray"></path></g><path id="node_outline3" fill="none" stroke="none" d="M1550.5,78.5h430a5,5,0,0,1,5,5v18a5,5,0,0,1,-5,5h-430a5,5,0,0,1,-5,-5v-18a5,5,0,0,1,5,-5z" stroke-width="3"></path><g id="node_text3" fill="black"><text id="kity_text_93" text-rendering="inherit" font-size="18" dy=".8em" y="80.79999995231628" x="1555.5">2、scrapy框架中可以加入requests和beautifulsoup</text></g></g><g id="minder_node5"><g id="node_expander3" style="cursor: pointer;" display="none"><path id="kity_path_222" fill="white" stroke="gray" d="M1545.5,150.5A6,6,0,1,1,1533.5,150.5A6,6,0,1,1,1545.5,150.5"></path><path id="kity_path_223" fill="none" stroke="gray"></path></g><path id="node_outline4" fill="none" stroke="none" d="M1550.5,136.5h473a5,5,0,0,1,5,5v18a5,5,0,0,1,-5,5h-473a5,5,0,0,1,-5,-5v-18a5,5,0,0,1,5,-5z" stroke-width="3"></path><g id="node_text4" fill="black"><text id="kity_text_95" text-rendering="inherit" font-size="18" dy=".8em" y="138.79999995231628" x="1555.5">3、scrapy基于twisted（一个异步框架）, 性能是最大优势</text></g></g><g id="minder_node6"><g id="node_expander4" style="cursor: pointer;" display="none"><path id="kity_path_225" fill="white" stroke="gray" d="M1545.5,208.5A6,6,0,1,1,1533.5,208.5A6,6,0,1,1,1545.5,208.5"></path><path id="kity_path_226" fill="none" stroke="gray"></path></g><path id="node_outline5" fill="none" stroke="none" d="M1550.5,194.5h365a5,5,0,0,1,5,5v18a5,5,0,0,1,-5,5h-365a5,5,0,0,1,-5,-5v-18a5,5,0,0,1,5,-5z" stroke-width="3"></path><g id="node_text5" fill="black"><text id="kity_text_97" text-rendering="inherit" font-size="18" dy=".8em" y="196.79999995231628" x="1555.5">4、scrapy方便扩展，提供了很多内置的功能</text></g></g><g id="minder_node7"><g id="node_expander5" style="cursor: pointer;" display="none"><path id="kity_path_228" fill="white" stroke="gray" d="M1545.5,266.5A6,6,0,1,1,1533.5,266.5A6,6,0,1,1,1545.5,266.5"></path><path id="kity_path_229" fill="none" stroke="gray"></path></g><path id="node_outline6" fill="none" stroke="none" d="M1550.5,252.5h582a5,5,0,0,1,5,5v18a5,5,0,0,1,-5,5h-582a5,5,0,0,1,-5,-5v-18a5,5,0,0,1,5,-5z" stroke-width="3"></path><g id="node_text6" fill="black"><text id="kity_text_99" text-rendering="inherit" font-size="18" dy=".8em" y="254.79999995231628" x="1555.5">5、scrapy内置的css和xpath selector非常方便， beautifulsoup速度慢</text></g></g><g id="minder_node8" opacity="1"><g id="node_expander10" style="cursor: pointer;"><path id="kity_path_243" fill="white" stroke="gray" d="M1112.5,738.5A6,6,0,1,1,1100.5,738.5A6,6,0,1,1,1112.5,738.5"></path><path id="kity_path_244" fill="none" stroke="gray" d="M1102,738.5L1111,738.5"></path></g><path id="node_outline11" fill="rgb(238, 243, 246)" stroke="rgb(57, 80, 96)" d="M1116.5,722.5h132a3,3,0,0,1,3,3v26a3,3,0,0,1,-3,3h-132a3,3,0,0,1,-3,-3v-26a3,3,0,0,1,3,-3z" stroke-width="3"></path><g id="node_text11" fill="black"><text id="kity_text_109" text-rendering="inherit" font-size="18" dy=".8em" y="726.7999999523163" x="1158.5">网页分类</text></g><g id="node_priority2"><path id="kity_path_157" fill="#006300" stroke="none" d="M1134,742c0,3.866,3.134,7,7,7h6c3.866,0,7,-3.134,7,-7V736H1134V742z"></path><path id="kity_path_158" fill="#00AF00" stroke="none" d="M1154,739c0,3.866,-3.134,7,-7,7H1141c-3.866,0,-7,-3.134,-7,-7V736c0,-3.866,3.134,-7,7,-7h6c3.866,0,7,3.134,7,7V739z" opacity="0.8"></path><text id="kity_text_159" text-rendering="geometricPrecision" x="1143" y="738.5" text-anchor="middle" font-style="italic" font-size="12" fill="white" dy="5">3</text></g></g><g id="minder_node12"><g id="node_expander15" style="cursor: pointer;"><path id="kity_path_258" fill="white" stroke="gray" d="M1106.5,538.5A6,6,0,1,1,1094.5,538.5A6,6,0,1,1,1106.5,538.5"></path><path id="kity_path_259" fill="none" stroke="gray" d="M1096,538.5L1105,538.5"></path></g><path id="node_outline16" fill="rgb(238, 243, 246)" stroke="rgb(115, 161, 191)" d="M1110.5,522.5h149a3,3,0,0,1,3,3v26a3,3,0,0,1,-3,3h-149a3,3,0,0,1,-3,-3v-26a3,3,0,0,1,3,-3z" stroke-width="1"></path><g id="node_text16" fill="black"><text id="kity_text_119" text-rendering="inherit" font-size="18" dy=".8em" y="526.7999999523163" x="1152.5">爬虫的作用</text></g><g id="node_priority3"><path id="kity_path_162" fill="#01467F" stroke="none" d="M1128,542c0,3.866,3.134,7,7,7h6c3.866,0,7,-3.134,7,-7V536H1128V542z"></path><path id="kity_path_163" fill="#0074FF" stroke="none" d="M1148,539c0,3.866,-3.134,7,-7,7H1135c-3.866,0,-7,-3.134,-7,-7V536c0,-3.866,3.134,-7,7,-7h6c3.866,0,7,3.134,7,7V539z" opacity="0.8"></path><text id="kity_text_164" text-rendering="geometricPrecision" x="1137" y="538.5" text-anchor="middle" font-style="italic" font-size="12" fill="white" dy="5">2</text></g></g><g id="minder_node13"><g id="node_expander11" style="cursor: pointer;" display="none"><path id="kity_path_246" fill="white" stroke="gray" d="M1286.5,423.5A6,6,0,1,1,1274.5,423.5A6,6,0,1,1,1286.5,423.5"></path><path id="kity_path_247" fill="none" stroke="gray"></path></g><path id="node_outline12" fill="none" stroke="none" d="M1291.5,409.5h1027a5,5,0,0,1,5,5v18a5,5,0,0,1,-5,5h-1027a5,5,0,0,1,-5,-5v-18a5,5,0,0,1,5,-5z" stroke-width="3"></path><g id="node_text12" fill="black"><text id="kity_text_111" text-rendering="inherit" font-size="18" dy=".8em" y="411.7999999523163" x="1296.5">1、搜素引擎-百度、Google（不知道自己要去哪些网站爬，爬去整个互联网）、垂直领域搜索引擎（知道要去特定的网站搜索）</text></g></g><g id="minder_node14"><g id="node_expander12" style="cursor: pointer;" display="none"><path id="kity_path_249" fill="white" stroke="gray" d="M1302.5,509.5A6,6,0,1,1,1290.5,509.5A6,6,0,1,1,1302.5,509.5"></path><path id="kity_path_250" fill="none" stroke="gray"></path></g><path id="node_outline13" fill="none" stroke="none" d="M1307.5,495.5h334a5,5,0,0,1,5,5v18a5,5,0,0,1,-5,5h-334a5,5,0,0,1,-5,-5v-18a5,5,0,0,1,5,-5z" stroke-width="3"></path><g id="node_text13" fill="black"><text id="kity_text_113" text-rendering="inherit" font-size="18" dy=".8em" y="497.7999999523163" x="1312.5">2、推送引擎-今日头条（根据浏览习惯）</text></g></g><g id="minder_node15"><g id="node_expander13" style="cursor: pointer;" display="none"><path id="kity_path_252" fill="white" stroke="gray" d="M1302.5,567.5A6,6,0,1,1,1290.5,567.5A6,6,0,1,1,1302.5,567.5"></path><path id="kity_path_253" fill="none" stroke="gray"></path></g><path id="node_outline14" fill="none" stroke="none" d="M1307.5,553.5h201a5,5,0,0,1,5,5v18a5,5,0,0,1,-5,5h-201a5,5,0,0,1,-5,-5v-18a5,5,0,0,1,5,-5z" stroke-width="3"></path><g id="node_text14" fill="black"><text id="kity_text_115" text-rendering="inherit" font-size="18" dy=".8em" y="555.7999999523163" x="1312.5">3、机器学习的数据样本</text></g></g><g id="minder_node16"><g id="node_expander14" style="cursor: pointer;" display="none"><path id="kity_path_255" fill="white" stroke="gray" d="M1302.5,625.5A6,6,0,1,1,1290.5,625.5A6,6,0,1,1,1302.5,625.5"></path><path id="kity_path_256" fill="none" stroke="gray"></path></g><path id="node_outline15" fill="none" stroke="none" d="M1307.5,611.5h112a5,5,0,0,1,5,5v18a5,5,0,0,1,-5,5h-112a5,5,0,0,1,-5,-5v-18a5,5,0,0,1,5,-5z" stroke-width="3"></path><g id="node_text15" fill="black"><text id="kity_text_117" text-rendering="inherit" font-size="18" dy=".8em" y="613.7999999523163" x="1312.5">4、数据分析</text></g></g><g id="minder_node17" opacity="1"><g id="node_expander17" style="cursor: pointer;"><path id="kity_path_264" fill="white" stroke="gray" d="M576.5,99.5A6,6,0,1,1,564.5,99.5A6,6,0,1,1,576.5,99.5"></path><path id="kity_path_265" fill="none" stroke="gray" d="M566,99.5L575,99.5"></path></g><path id="node_outline18" fill="rgb(238, 243, 246)" stroke="rgb(115, 161, 191)" d="M580.5,83.5h151a3,3,0,0,1,3,3v26a3,3,0,0,1,-3,3h-151a3,3,0,0,1,-3,-3v-26a3,3,0,0,1,3,-3z" stroke-width="1"></path><g id="node_text18" fill="black"><text id="kity_text_123" text-rendering="inherit" font-size="18" dy=".8em" y="87.79999995231628" x="622.5">正则表达式</text></g><g id="node_priority4"><path id="kity_path_167" fill="#B25000" stroke="none" d="M598,103c0,3.866,3.134,7,7,7h6c3.866,0,7,-3.134,7,-7V97H598V103z"></path><path id="kity_path_168" fill="#FF962E" stroke="none" d="M618,100c0,3.866,-3.134,7,-7,7H605c-3.866,0,-7,-3.134,-7,-7V97c0,-3.866,3.134,-7,7,-7h6c3.866,0,7,3.134,7,7V100z" opacity="0.8"></path><text id="kity_text_169" text-rendering="geometricPrecision" x="607" y="99.5" text-anchor="middle" font-style="italic" font-size="12" fill="white" dy="5">4</text></g></g><g id="minder_node19" opacity="1"><g id="node_expander21" style="cursor: pointer;"><path id="kity_path_276" fill="white" stroke="gray" d="M842.5,212.5A6,6,0,1,1,830.5,212.5A6,6,0,1,1,842.5,212.5"></path><path id="kity_path_277" fill="none" stroke="gray" d="M832,212.5L841,212.5"></path></g><path id="node_outline22" fill="rgb(238, 243, 246)" stroke="rgb(115, 161, 191)" d="M604.5,196.5h222a3,3,0,0,1,3,3v26a3,3,0,0,1,-3,3h-222a3,3,0,0,1,-3,-3v-26a3,3,0,0,1,3,-3z" stroke-width="1"></path><g id="node_text22" fill="black"><text id="kity_text_131" text-rendering="inherit" font-size="18" dy=".8em" y="200.79999995231628" x="646.5">深度优先和广度优先</text></g><g id="node_priority5"><path id="kity_path_172" fill="#4720C4" stroke="none" d="M622,216c0,3.866,3.134,7,7,7h6c3.866,0,7,-3.134,7,-7V210H622V216z"></path><path id="kity_path_173" fill="#A464FF" stroke="none" d="M642,213c0,3.866,-3.134,7,-7,7H629c-3.866,0,-7,-3.134,-7,-7V210c0,-3.866,3.134,-7,7,-7h6c3.866,0,7,3.134,7,7V213z" opacity="0.8"></path><text id="kity_text_174" text-rendering="geometricPrecision" x="631" y="212.5" text-anchor="middle" font-style="italic" font-size="12" fill="white" dy="5">5</text></g></g><g id="minder_node23"><g id="node_expander27" style="cursor: pointer;"><path id="kity_path_294" fill="white" stroke="gray" d="M822.5,442.5A6,6,0,1,1,810.5,442.5A6,6,0,1,1,822.5,442.5"></path><path id="kity_path_295" fill="none" stroke="gray" d="M812,442.5L821,442.5"></path></g><path id="node_outline28" fill="rgb(238, 243, 246)" stroke="rgb(115, 161, 191)" d="M620.5,426.5h186a3,3,0,0,1,3,3v26a3,3,0,0,1,-3,3h-186a3,3,0,0,1,-3,-3v-26a3,3,0,0,1,3,-3z" stroke-width="1"></path><g id="node_text28" fill="black"><text id="kity_text_143" text-rendering="inherit" font-size="18" dy=".8em" y="430.7999999523163" x="662.5">爬虫的去重策略</text></g><g id="node_priority6"><path id="kity_path_177" fill="#515151" stroke="none" d="M638,446c0,3.866,3.134,7,7,7h6c3.866,0,7,-3.134,7,-7V440H638V446z"></path><path id="kity_path_178" fill="#A3A3A3" stroke="none" d="M658,443c0,3.866,-3.134,7,-7,7H645c-3.866,0,-7,-3.134,-7,-7V440c0,-3.866,3.134,-7,7,-7h6c3.866,0,7,3.134,7,7V443z" opacity="0.8"></path><text id="kity_text_179" text-rendering="geometricPrecision" x="647" y="442.5" text-anchor="middle" font-style="italic" font-size="12" fill="white" dy="5">6</text></g></g><g id="minder_node24"><g id="node_expander22" style="cursor: pointer;" display="none"><path id="kity_path_279" fill="white" stroke="gray" d="M589.5,326.5A6,6,0,1,1,577.5,326.5A6,6,0,1,1,589.5,326.5"></path><path id="kity_path_280" fill="none" stroke="gray"></path></g><path id="node_outline23" fill="none" stroke="none" d="M25.5,312.5h547a5,5,0,0,1,5,5v18a5,5,0,0,1,-5,5h-547a5,5,0,0,1,-5,-5v-18a5,5,0,0,1,5,-5z" stroke-width="3"></path><g id="node_text23" fill="black"><text id="kity_text_133" text-rendering="inherit" font-size="18" dy=".8em" y="314.7999999523163" x="30.5">1、将访问过的url保存在数据库中，然后查询对比。（缺点效率低）</text></g></g><g id="minder_node25"><g id="node_expander23" style="cursor: pointer;" display="none"><path id="kity_path_282" fill="white" stroke="gray" d="M589.5,384.5A6,6,0,1,1,577.5,384.5A6,6,0,1,1,589.5,384.5"></path><path id="kity_path_283" fill="none" stroke="gray"></path></g><path id="node_outline24" fill="none" stroke="none" d="M106.5,370.5h466a5,5,0,0,1,5,5v18a5,5,0,0,1,-5,5h-466a5,5,0,0,1,-5,-5v-18a5,5,0,0,1,5,-5z" stroke-width="3"></path><g id="node_text24" fill="black"><text id="kity_text_135" text-rendering="inherit" font-size="18" dy=".8em" y="372.7999999523163" x="111.5">2、将访问过的url保存到set中，查询效率高，内存占用大</text></g></g><g id="minder_node26"><g id="node_expander24" style="cursor: pointer;" display="none"><path id="kity_path_285" fill="white" stroke="gray" d="M589.5,442.5A6,6,0,1,1,577.5,442.5A6,6,0,1,1,589.5,442.5"></path><path id="kity_path_286" fill="none" stroke="gray"></path></g><path id="node_outline25" fill="none" stroke="none" d="M249.5,428.5h323a5,5,0,0,1,5,5v18a5,5,0,0,1,-5,5h-323a5,5,0,0,1,-5,-5v-18a5,5,0,0,1,5,-5z" stroke-width="3"></path><g id="node_text25" fill="black"><text id="kity_text_137" text-rendering="inherit" font-size="18" dy=".8em" y="430.7999999523163" x="254.5">3、url经过md5方法哈希后保存到set中</text></g></g><g id="minder_node27"><g id="node_expander25" style="cursor: pointer;" display="none"><path id="kity_path_288" fill="white" stroke="gray" d="M589.5,500.5A6,6,0,1,1,577.5,500.5A6,6,0,1,1,589.5,500.5"></path><path id="kity_path_289" fill="none" stroke="gray"></path></g><path id="node_outline26" fill="none" stroke="none" d="M54.5,486.5h518a5,5,0,0,1,5,5v18a5,5,0,0,1,-5,5h-518a5,5,0,0,1,-5,-5v-18a5,5,0,0,1,5,-5z" stroke-width="3"></path><g id="node_text26" fill="black"><text id="kity_text_139" text-rendering="inherit" font-size="18" dy=".8em" y="488.7999999523163" x="59.5">4、用bitmanp方法，将访问过的url通过hash函数映射到某一位</text></g></g><g id="minder_node28"><g id="node_expander26" style="cursor: pointer;" display="none"><path id="kity_path_291" fill="white" stroke="gray" d="M589.5,558.5A6,6,0,1,1,577.5,558.5A6,6,0,1,1,589.5,558.5"></path><path id="kity_path_292" fill="none" stroke="gray"></path></g><path id="node_outline27" fill="none" stroke="none" d="M48.5,544.5h524a5,5,0,0,1,5,5v18a5,5,0,0,1,-5,5h-524a5,5,0,0,1,-5,-5v-18a5,5,0,0,1,5,-5z" stroke-width="3"></path><g id="node_text27" fill="black"><text id="kity_text_141" text-rendering="inherit" font-size="18" dy=".8em" y="546.7999999523163" x="53.5">5、bloomfilter方法对bitmap进行改进，多重hash函数降低冲突</text></g></g><g id="minder_node29"><g id="node_expander30" style="cursor: pointer;"><path id="kity_path_303" fill="white" stroke="gray" d="M850.5,699.5A6,6,0,1,1,838.5,699.5A6,6,0,1,1,850.5,699.5"></path><path id="kity_path_304" fill="none" stroke="gray" d="M840,699.5L849,699.5"></path></g><path id="node_outline31" fill="rgb(238, 243, 246)" stroke="rgb(115, 161, 191)" d="M685.5,683.5h149a3,3,0,0,1,3,3v26a3,3,0,0,1,-3,3h-149a3,3,0,0,1,-3,-3v-26a3,3,0,0,1,3,-3z" stroke-width="1"></path><g id="node_text31" fill="black"><text id="kity_text_149" text-rendering="inherit" font-size="18" dy=".8em" y="687.7999999523163" x="727.5">字符串编码</text></g><g id="node_priority7"><path id="kity_path_182" fill="#515151" stroke="none" d="M703,703c0,3.866,3.134,7,7,7h6c3.866,0,7,-3.134,7,-7V697H703V703z"></path><path id="kity_path_183" fill="#A3A3A3" stroke="none" d="M723,700c0,3.866,-3.134,7,-7,7H710c-3.866,0,-7,-3.134,-7,-7V697c0,-3.866,3.134,-7,7,-7h6c3.866,0,7,3.134,7,7V700z" opacity="0.8"></path><text id="kity_text_184" text-rendering="geometricPrecision" x="712" y="699.5" text-anchor="middle" font-style="italic" font-size="12" fill="white" dy="5">7</text></g></g><g id="minder_node30"><g id="node_expander28" style="cursor: pointer;" display="none"><path id="kity_path_297" fill="white" stroke="gray" d="M654.5,670.5A6,6,0,1,1,642.5,670.5A6,6,0,1,1,654.5,670.5"></path><path id="kity_path_298" fill="none" stroke="gray"></path></g><path id="node_outline29" fill="none" stroke="none" d="M389.5,656.5h248a5,5,0,0,1,5,5v18a5,5,0,0,1,-5,5h-248a5,5,0,0,1,-5,-5v-18a5,5,0,0,1,5,-5z" stroke-width="3"></path><g id="node_text29" fill="black"><text id="kity_text_145" text-rendering="inherit" font-size="18" dy=".8em" y="658.7999999523163" x="394.5">unicode编码（Python内部）</text></g></g><g id="minder_node31"><g id="node_expander29" style="cursor: pointer;" display="none"><path id="kity_path_300" fill="white" stroke="gray" d="M654.5,728.5A6,6,0,1,1,642.5,728.5A6,6,0,1,1,654.5,728.5"></path><path id="kity_path_301" fill="none" stroke="gray"></path></g><path id="node_outline30" fill="none" stroke="none" d="M549.5,714.5h88a5,5,0,0,1,5,5v18a5,5,0,0,1,-5,5h-88a5,5,0,0,1,-5,-5v-18a5,5,0,0,1,5,-5z" stroke-width="3"></path><g id="node_text30" fill="black"><text id="kity_text_147" text-rendering="inherit" font-size="18" dy=".8em" y="716.7999999523163" x="554.5">utf-8编码</text></g></g><g id="minder_node20"><g id="node_expander18" style="cursor: pointer;" display="none"><path id="kity_path_267" fill="white" stroke="gray" d="M573.5,154.5A6,6,0,1,1,561.5,154.5A6,6,0,1,1,573.5,154.5"></path><path id="kity_path_268" fill="none" stroke="gray"></path></g><path id="node_outline19" fill="none" stroke="none" d="M261.5,140.5h295a5,5,0,0,1,5,5v18a5,5,0,0,1,-5,5h-295a5,5,0,0,1,-5,-5v-18a5,5,0,0,1,5,-5z" stroke-width="3"></path><g id="node_text19" fill="black"><text id="kity_text_125" text-rendering="inherit" font-size="18" dy=".8em" y="142.79999995231628" x="266.5">1、网站的树结构（url的分层设计）</text></g></g><g id="minder_node21"><g id="node_expander19" style="cursor: pointer;" display="none"><path id="kity_path_270" fill="white" stroke="gray" d="M573.5,212.5A6,6,0,1,1,561.5,212.5A6,6,0,1,1,573.5,212.5"></path><path id="kity_path_271" fill="none" stroke="gray"></path></g><path id="node_outline20" fill="none" stroke="none" d="M337.5,198.5h219a5,5,0,0,1,5,5v18a5,5,0,0,1,-5,5h-219a5,5,0,0,1,-5,-5v-18a5,5,0,0,1,5,-5z" stroke-width="3"></path><g id="node_text20" fill="black"><text id="kity_text_127" text-rendering="inherit" font-size="18" dy=".8em" y="200.79999995231628" x="342.5">2、深度优先（递归算法）</text></g></g><g id="minder_node22"><g id="node_expander20" style="cursor: pointer;" display="none"><path id="kity_path_273" fill="white" stroke="gray" d="M573.5,270.5A6,6,0,1,1,561.5,270.5A6,6,0,1,1,573.5,270.5"></path><path id="kity_path_274" fill="none" stroke="gray"></path></g><path id="node_outline21" fill="none" stroke="none" d="M373.5,256.5h183a5,5,0,0,1,5,5v18a5,5,0,0,1,-5,5h-183a5,5,0,0,1,-5,-5v-18a5,5,0,0,1,5,-5z" stroke-width="3"></path><g id="node_text21" fill="black"><text id="kity_text_129" text-rendering="inherit" font-size="18" dy=".8em" y="258.7999999523163" x="378.5">3、广度优先（队列）</text></g></g><g id="minder_node18"><g id="node_expander16" style="cursor: pointer;" display="none"><path id="kity_path_261" fill="white" stroke="gray" d="M549.5,99.5A6,6,0,1,1,537.5,99.5A6,6,0,1,1,549.5,99.5"></path><path id="kity_path_262" fill="none" stroke="gray"></path></g><path id="node_outline17" fill="none" stroke="none" d="M412.5,85.5h120a5,5,0,0,1,5,5v18a5,5,0,0,1,-5,5h-120a5,5,0,0,1,-5,-5v-18a5,5,0,0,1,5,-5z" stroke-width="3"></path><g id="node_text17" fill="black"><text id="kity_text_121" text-rendering="inherit" font-size="18" dy=".8em" y="87.79999995231628" x="417.5">提取所需数据</text></g></g><g id="minder_node9"><g id="node_expander7" style="cursor: pointer;" display="none"><path id="kity_path_234" fill="white" stroke="gray" d="M1291.5,680.5A6,6,0,1,1,1279.5,680.5A6,6,0,1,1,1291.5,680.5"></path><path id="kity_path_235" fill="none" stroke="gray"></path></g><path id="node_outline8" fill="none" stroke="none" d="M1296.5,666.5h309a5,5,0,0,1,5,5v18a5,5,0,0,1,-5,5h-309a5,5,0,0,1,-5,-5v-18a5,5,0,0,1,5,-5z" stroke-width="3"></path><g id="node_text8" fill="black"><text id="kity_text_103" text-rendering="inherit" font-size="18" dy=".8em" y="668.7999999523163" x="1301.5">1、静态网页（服务器已经加载好的）</text></g></g><g id="minder_node10"><g id="node_expander8" style="cursor: pointer;" display="none"><path id="kity_path_237" fill="white" stroke="gray" d="M1291.5,738.5A6,6,0,1,1,1279.5,738.5A6,6,0,1,1,1291.5,738.5"></path><path id="kity_path_238" fill="none" stroke="gray"></path></g><path id="node_outline9" fill="none" stroke="none" d="M1296.5,724.5h273a5,5,0,0,1,5,5v18a5,5,0,0,1,-5,5h-273a5,5,0,0,1,-5,-5v-18a5,5,0,0,1,5,-5z" stroke-width="3"></path><g id="node_text9" fill="black"><text id="kity_text_105" text-rendering="inherit" font-size="18" dy=".8em" y="726.7999999523163" x="1301.5">2、动态网页（跟数据库有交互）</text></g></g><g id="minder_node11"><g id="node_expander9" style="cursor: pointer;" display="none"><path id="kity_path_240" fill="white" stroke="gray" d="M1291.5,796.5A6,6,0,1,1,1279.5,796.5A6,6,0,1,1,1291.5,796.5"></path><path id="kity_path_241" fill="none" stroke="gray"></path></g><path id="node_outline10" fill="none" stroke="none" d="M1296.5,782.5h204a5,5,0,0,1,5,5v18a5,5,0,0,1,-5,5h-204a5,5,0,0,1,-5,-5v-18a5,5,0,0,1,5,-5z" stroke-width="3"></path><g id="node_text10" fill="black"><text id="kity_text_107" text-rendering="inherit" font-size="18" dy=".8em" y="784.7999999523163" x="1301.5">3、webservice(restapi)</text></g></g></g></g></svg>